<svg width="104" height="25" viewBox="0 0 104 25" fill="none" xmlns="http://www.w3.org/2000/svg">
<path d="M15.8471 12.9882C15.7765 13.1059 15.6706 13.1882 15.5294 13.2353C15.4118 13.2588 15.2941 13.3059 15.1765 13.3765C15.0588 13.4471 14.9412 13.5412 14.8235 13.6588C14.7059 13.7765 14.5882 13.8706 14.4706 13.9412C14.8 15.2118 15.0588 16.3176 15.2471 17.2588C15.4353 18.2 15.5529 18.9059 15.6 19.3765C15.6471 19.8471 15.6824 20.3647 15.7059 20.9294C15.7294 21.4941 15.7412 22.0118 15.7412 22.4824C15.7412 22.8353 15.7176 23.1176 15.6706 23.3294C15.6471 23.5647 15.6 23.7882 15.5294 24C15.2471 23.6471 15.0118 23.2706 14.8235 22.8706C14.6588 22.4706 14.4824 22.0706 14.2941 21.6706C13.8941 20.4706 13.5059 19.2118 13.1294 17.8941C12.7765 16.5765 12.4235 15.2353 12.0706 13.8706C11.4118 13.8471 10.7059 13.8353 9.95294 13.8353C9.2 13.8353 8.44706 13.8353 7.69412 13.8353C6.94118 13.8353 6.22353 13.8471 5.54118 13.8706C4.88235 13.8706 4.30588 13.8824 3.81176 13.9059C3.76471 14.0471 3.71765 14.2118 3.67059 14.4C3.52941 14.7059 3.41176 15.0471 3.31765 15.4235C3.22353 15.7765 3.14118 16.1647 3.07059 16.5882C3 16.9882 2.91765 17.4118 2.82353 17.8588C2.72941 18.3059 2.61176 18.7529 2.47059 19.2C2.77647 19.2 3.07059 19.1059 3.35294 18.9176C3.65882 18.7059 3.96471 18.6 4.27059 18.6C4.05882 18.8118 3.87059 19.0471 3.70588 19.3059C3.56471 19.5647 3.43529 19.9059 3.31765 20.3294C3.29412 20.4471 3.22353 20.5647 3.10588 20.6824C2.98824 20.8235 2.90588 20.9294 2.85882 21C2.81176 21.0941 2.76471 21.1882 2.71765 21.2824C2.67059 21.4 2.61176 21.4824 2.54118 21.5294C2.37647 21.6235 2.23529 21.6706 2.11765 21.6706C2 21.6941 1.91765 21.6706 1.87059 21.6C1.68235 21.3176 1.55294 21.0118 1.48235 20.6824C1.43529 20.3765 1.38824 20.0471 1.34118 19.6941C1.34118 19.0588 1.42353 18.2353 1.58824 17.2235C1.75294 16.2118 1.96471 15.1294 2.22353 13.9765C2.03529 13.9294 1.84706 13.8471 1.65882 13.7294C1.47059 13.5882 1.30588 13.4941 1.16471 13.4471C0.905882 13.3294 0.694118 13.2706 0.529412 13.2706C0.364706 13.2471 0.188235 13.1529 0 12.9882L2.15294 12.4235C2.27059 12.4235 2.42353 12.4 2.61176 12.3529C2.89412 11.2471 3.17647 10.1882 3.45882 9.17647C3.74118 8.16471 4.01176 7.30588 4.27059 6.6C4.45882 6.05882 4.68235 5.43529 4.94118 4.72941C5.22353 4.02353 5.54118 3.35294 5.89412 2.71765C6.27059 2.05882 6.68235 1.49412 7.12941 1.02353C7.6 0.552942 8.10588 0.258824 8.64706 0.141177C8.81176 0.0941185 8.97647 0.0588249 9.14118 0.0352958C9.30588 0.0117653 9.48235 0 9.67059 0C9.85882 0 10 0.0941178 10.0941 0.282353C10.1882 0.44706 10.3294 0.658825 10.5176 0.917648C10.6353 1.12941 10.7412 1.31765 10.8353 1.48235C10.9529 1.62353 11.0706 1.92941 11.1882 2.4C11.7529 4.11765 12.2824 5.84706 12.7765 7.58824C13.2706 9.30588 13.7059 10.9294 14.0824 12.4588L16.2353 12.9176L15.8471 12.9882ZM8.64706 1.65883C8.24706 2.2 7.87059 2.8 7.51765 3.45882C7.16471 4.09412 6.81176 4.83529 6.45882 5.68235C6.10588 6.50588 5.75294 7.45882 5.4 8.54118C5.04706 9.6 4.68235 10.8 4.30588 12.1412C5.52941 12 6.75294 11.9176 7.97647 11.8941C9.2 11.8706 10.4118 11.9176 11.6118 12.0353C11.1176 10.1294 10.6353 8.28235 10.1647 6.49412C9.69412 4.68235 9.18823 3.07059 8.64706 1.65883Z" transform="translate(1 1)" fill="#28324E"/>
<path d="M20.1529 14.5059C20.5529 14.1059 20.9529 13.6824 21.3529 13.2353C21.7765 12.7647 22.2118 12.3176 22.6588 11.8941C23.1059 11.4706 23.5647 11.0941 24.0353 10.7647C24.5059 10.4118 25 10.1294 25.5176 9.91765C25.6353 9.87059 25.7412 9.85882 25.8353 9.88235C25.9529 9.90588 26.0706 9.89412 26.1882 9.84706C26.3765 9.84706 26.5412 9.84706 26.6824 9.84706C26.8235 9.84706 26.9529 9.89412 27.0706 9.98824C27.4 10.2 27.6588 10.5059 27.8471 10.9059C28.0588 11.2824 28.2353 11.7059 28.3765 12.1765C28.4706 12.4353 28.5176 12.6824 28.5176 12.9176C28.5412 13.1529 28.6118 13.4235 28.7294 13.7294C28.8706 14.1765 29.0235 14.6353 29.1882 15.1059C29.3765 15.5529 29.4471 15.9882 29.4 16.4118C29.3765 16.5294 29.3412 16.6353 29.2941 16.7294C29.2471 16.8 29.1882 16.8941 29.1176 17.0118C29.0706 17.1059 28.9882 17.2235 28.8706 17.3647C28.7529 17.5059 28.6353 17.6118 28.5176 17.6824C28.4 17.7765 28.3176 17.8588 28.2706 17.9294C28.2471 17.9765 28.1412 18.0353 27.9529 18.1059C27.6471 17.6588 27.4118 17.1765 27.2471 16.6588C27.0824 16.1412 26.9412 15.6 26.8235 15.0353C26.7059 14.4706 26.6 13.8941 26.5059 13.3059C26.4118 12.7176 26.2941 12.1176 26.1529 11.5059C26.1059 11.3412 25.9529 11.2471 25.6941 11.2235C25.4588 11.2 25.1765 11.2824 24.8471 11.4706C24.5412 11.6353 24.2118 11.9059 23.8588 12.2824C23.5059 12.6588 23.1882 13.1412 22.9059 13.7294C22.7176 14.1529 22.5412 14.6 22.3765 15.0706C22.2118 15.5176 22.0235 15.9765 21.8118 16.4471C21.6235 16.8941 21.3882 17.3412 21.1059 17.7882C20.8471 18.2118 20.5294 18.6 20.1529 18.9529C20.0353 19.0706 19.9529 19.0824 19.9059 18.9882C19.8588 18.8941 19.7412 18.8118 19.5529 18.7412C19.4118 18.6941 19.3294 18.6471 19.3059 18.6C19.3059 18.5529 19.2706 18.4118 19.2 18.1765C19.0588 17.6824 18.9059 17.1176 18.7412 16.4824C18.6 15.8471 18.4353 15.1765 18.2471 14.4706C18.0824 13.7647 17.9059 13.0588 17.7176 12.3529C17.5294 11.6235 17.3412 10.9412 17.1529 10.3059L16.9412 9.67059C16.9882 9.57647 17.0706 9.49412 17.1882 9.42353C17.3294 9.35294 17.4706 9.29412 17.6118 9.24706C17.7529 9.2 17.9059 9.21177 18.0706 9.28235C18.2353 9.35294 18.3647 9.38824 18.4588 9.38824C18.7176 9.38824 18.9412 9.55294 19.1294 9.88235C19.3412 10.2118 19.5176 10.6353 19.6588 11.1529C19.8 11.6471 19.9059 12.2 19.9765 12.8118C20.0706 13.4 20.1294 13.9647 20.1529 14.5059Z" transform="translate(1 1)" fill="#28324E"/>
<path d="M35.4835 7.69412C35.6718 7.88235 35.7424 8.03529 35.6953 8.15294C35.6718 8.27059 35.6012 8.31765 35.4835 8.29412C35.1777 8.29412 34.8365 8.32941 34.46 8.4C34.1071 8.44706 33.7188 8.49412 33.2953 8.54118C32.8953 8.56471 32.4718 8.56471 32.0247 8.54118C31.5777 8.51765 31.1306 8.43529 30.6835 8.29412C30.4953 8.10588 30.4953 7.94118 30.6835 7.8C30.8953 7.63529 31.06 7.4 31.1777 7.09412C31.2482 6.88235 31.3424 6.74118 31.46 6.67059C31.6012 6.57647 31.7424 6.51765 31.8835 6.49412C32.1424 6.49412 32.46 6.55294 32.8365 6.67059C33.2365 6.76471 33.5659 6.82353 33.8247 6.84706C34.2247 6.89412 34.5541 6.96471 34.813 7.05882C35.0718 7.12941 35.2953 7.34118 35.4835 7.69412ZM34.7424 12.4941C34.8835 13.0353 34.9894 13.5294 35.06 13.9765C35.1541 14.4235 35.213 14.8588 35.2365 15.2824C35.2835 15.6824 35.3071 16.0941 35.3071 16.5176C35.3306 16.9412 35.3424 17.4 35.3424 17.8941C35.3424 17.9882 35.2835 18.0941 35.1659 18.2118C35.0718 18.3059 35.0012 18.4118 34.9541 18.5294C34.86 18.7412 34.7777 18.8706 34.7071 18.9176C34.66 18.9647 34.5659 19.0235 34.4247 19.0941C34.0953 19.2353 33.8012 19.4353 33.5424 19.6941C33.2365 19.2471 33.0247 18.7294 32.9071 18.1412C32.813 17.5529 32.7424 16.9412 32.6953 16.3059C32.6718 15.6706 32.6365 15.0353 32.5894 14.4C32.5659 13.7412 32.4835 13.1059 32.3424 12.4941C32.2718 12.1647 32.2953 11.9412 32.413 11.8235C32.5306 11.7059 32.66 11.6235 32.8012 11.5765C32.9659 11.5294 33.1424 11.5647 33.3306 11.6824C33.5424 11.8 33.7424 11.9176 33.9306 12.0353C34.0953 12.1294 34.2483 12.1882 34.3894 12.2118C34.5541 12.2118 34.6718 12.3059 34.7424 12.4941Z" transform="translate(1 1)" fill="#28324E"/>
<path d="M38.9049 8.50588C39.046 9.11765 39.1049 9.75294 39.0813 10.4118C39.0578 11.0706 39.0225 11.7412 38.9755 12.4235C38.9519 13.0824 38.9519 13.7529 38.9755 14.4353C39.0225 15.0941 39.199 15.7176 39.5049 16.3059C40.046 14.9647 40.7872 13.7529 41.7284 12.6706C42.6696 11.5647 43.6696 10.5765 44.7284 9.70588C44.8696 9.58824 45.0107 9.51765 45.1519 9.49412C45.3166 9.44706 45.4696 9.4 45.6107 9.35294C45.7284 9.30588 45.8343 9.27059 45.9284 9.24706C46.046 9.2 46.199 9.22353 46.3872 9.31765C46.8578 9.57647 47.1284 10.0706 47.199 10.8C47.2696 11.5294 47.3049 12.5647 47.3049 13.9059C47.6578 13.5529 48.0107 13.1647 48.3637 12.7412C48.7402 12.2941 49.1166 11.8706 49.4931 11.4706C49.8696 11.0706 50.2578 10.7176 50.6578 10.4118C51.0578 10.1059 51.4813 9.88235 51.9284 9.74118C52.0696 9.69412 52.2107 9.69412 52.3519 9.74118C52.5166 9.76471 52.6696 9.77647 52.8107 9.77647C52.9049 9.77647 52.9872 9.76471 53.0578 9.74118C53.1284 9.69412 53.2107 9.68235 53.3049 9.70588C53.446 9.72941 53.5637 9.8 53.6578 9.91765C53.7755 10.0353 53.8578 10.1647 53.9049 10.3059C53.999 10.6588 54.1284 11.1529 54.2931 11.7882C54.4578 12.4 54.599 13.0353 54.7166 13.6941C54.8578 14.3294 54.9637 14.9294 55.0343 15.4941C55.1049 16.0588 55.1049 16.4588 55.0343 16.6941C54.9872 16.9059 54.9284 17.0471 54.8578 17.1176C54.8107 17.1882 54.6931 17.3176 54.5049 17.5059C54.4578 17.5059 54.399 17.5412 54.3284 17.6118C54.2813 17.6824 54.2225 17.7529 54.1519 17.8235C54.0578 17.9176 53.9755 18.0118 53.9049 18.1059C53.599 17.6588 53.3637 17.1765 53.199 16.6588C53.0343 16.1412 52.8931 15.6 52.7755 15.0353C52.6578 14.4706 52.5519 13.8941 52.4578 13.3059C52.3637 12.7176 52.246 12.1176 52.1049 11.5059C51.4225 11.8588 50.8813 12.2706 50.4813 12.7412C50.1049 13.1882 49.799 13.6706 49.5637 14.1882C49.3284 14.6824 49.1166 15.1882 48.9284 15.7059C48.7402 16.2235 48.5049 16.7176 48.2225 17.1882C47.9637 17.5882 47.7049 17.9059 47.446 18.1412C47.1872 18.3765 46.9755 18.4824 46.8107 18.4588C46.6696 18.4353 46.5637 18.3059 46.4931 18.0706C46.4225 17.8353 46.3284 17.4824 46.2107 17.0118C45.9755 16.0471 45.7519 15.0118 45.5402 13.9059C45.3519 12.8 45.1402 11.8 44.9049 10.9059C44.4578 11.0471 44.0107 11.3059 43.5637 11.6824C43.1402 12.0353 42.7402 12.4588 42.3637 12.9529C41.9872 13.4235 41.646 13.9529 41.3402 14.5412C41.0578 15.1294 40.846 15.7176 40.7049 16.3059C41.0107 16.9176 41.0225 17.4235 40.7402 17.8235C40.6225 18.0118 40.4578 18.1765 40.246 18.3176C40.0343 18.4353 39.7872 18.5647 39.5049 18.7059C39.3402 18.8706 39.1637 18.9294 38.9755 18.8824C38.7872 18.8353 38.6343 18.7294 38.5166 18.5647C38.399 18.3765 38.3284 18.2235 38.3049 18.1059C38.1637 17.3529 38.0225 16.5765 37.8813 15.7765C37.7402 14.9529 37.646 14.1294 37.599 13.3059C37.5755 12.4824 37.6107 11.6706 37.7049 10.8706C37.799 10.0471 37.999 9.25882 38.3049 8.50588C38.3519 8.36471 38.399 8.29412 38.446 8.29412C38.4931 8.29412 38.5402 8.31765 38.5872 8.36471C38.6343 8.38824 38.6813 8.41176 38.7284 8.43529C38.7755 8.45882 38.799 8.47059 38.799 8.47059C38.8225 8.47059 38.8578 8.48235 38.9049 8.50588Z" transform="translate(1 1)" fill="#28324E"/>
<path d="M65.3333 8.89412C65.6391 9.64706 65.9215 10.4588 66.1803 11.3294C66.4627 12.2 66.6509 13.0706 66.745 13.9412C66.8627 14.7882 66.8627 15.6118 66.745 16.4118C66.6509 17.2118 66.3803 17.9059 65.9333 18.4941C65.745 18.7294 65.5215 18.8235 65.2627 18.7765C65.1686 18.7529 65.0862 18.6941 65.0156 18.6C64.945 18.5059 64.8509 18.4235 64.7333 18.3529C64.6391 18.2824 64.5333 18.2235 64.4156 18.1765C64.3215 18.1294 64.2274 18.0353 64.1333 17.8941C63.7803 18.0118 63.4274 18.1882 63.0744 18.4235C62.745 18.6353 62.4039 18.8588 62.0509 19.0941C61.698 19.3294 61.3333 19.5529 60.9568 19.7647C60.5803 20 60.1921 20.1647 59.7921 20.2588C59.3686 20.3765 59.0509 20.3529 58.8391 20.1882C58.6509 20.0471 58.4391 19.8824 58.2039 19.6941C58.0391 19.5529 57.9333 19.4588 57.8862 19.4118C57.8391 19.3882 57.7921 19.2471 57.745 18.9882C57.6744 18.4706 57.6627 17.9176 57.7097 17.3294C57.7803 16.7176 57.9215 16.1059 58.1333 15.4941C58.7215 13.7059 59.9215 12.5059 61.7333 11.8941C61.945 11.8235 62.1568 11.8118 62.3686 11.8588C62.6039 11.8824 62.8274 11.9412 63.0391 12.0353C63.2509 12.1294 63.4509 12.2471 63.6391 12.3882C63.8509 12.5294 64.0391 12.6706 64.2039 12.8118L64.7686 13.2706C64.8862 12.8706 64.8744 12.4471 64.7333 12C64.6156 11.5294 64.4274 11.0941 64.1686 10.6941C63.9097 10.2706 63.6156 9.89412 63.2862 9.56471C62.9568 9.23529 62.6391 9.01176 62.3333 8.89412C61.1333 8.89412 60.0509 9.17647 59.0862 9.74118C58.145 10.2824 57.2274 11 56.3333 11.8941C56.2862 11.9412 56.2274 11.9765 56.1568 12C56.1097 12.0235 56.0627 12.0471 56.0156 12.0706C55.945 12.1176 55.8627 12.1294 55.7686 12.1059C55.698 12.0824 55.6862 12.0118 55.7333 11.8941C55.8744 11.1412 56.1568 10.4706 56.5803 9.88235C57.0039 9.27059 57.498 8.74118 58.0627 8.29412C58.6274 7.84706 59.2274 7.47059 59.8627 7.16471C60.498 6.85882 61.1215 6.63529 61.7333 6.49412C61.8274 6.44706 61.9097 6.42353 61.9803 6.42353C62.0744 6.4 62.1803 6.38824 62.298 6.38824C62.4627 6.38824 62.6156 6.43529 62.7568 6.52941C62.898 6.62353 63.0627 6.72941 63.2509 6.84706C63.4862 6.96471 63.7215 7.10588 63.9568 7.27059C64.1921 7.41177 64.4039 7.58824 64.5921 7.8C64.7568 7.98824 64.898 8.17647 65.0156 8.36471C65.1333 8.55294 65.2391 8.72941 65.3333 8.89412ZM64.1333 15.1765C63.9921 14.8706 63.7686 14.5882 63.4627 14.3294C63.1803 14.0706 62.8509 13.8824 62.4744 13.7647C62.098 13.6235 61.6862 13.5882 61.2391 13.6588C60.8156 13.7294 60.3803 13.9412 59.9333 14.2941C59.7921 14.6 59.6509 14.9412 59.5097 15.3176C59.3686 15.6706 59.2627 16.0353 59.1921 16.4118C59.1215 16.7647 59.0862 17.1294 59.0862 17.5059C59.1097 17.8588 59.1921 18.1882 59.3333 18.4941C60.2274 18.1882 61.098 17.8353 61.945 17.4353C62.7921 17.0353 63.5215 16.6824 64.1333 16.3765C64.2744 16.2353 64.3568 16.1176 64.3803 16.0235C64.4039 15.9294 64.3921 15.8471 64.345 15.7765C64.3215 15.7059 64.2744 15.6235 64.2039 15.5294C64.1568 15.4353 64.1333 15.3176 64.1333 15.1765Z" transform="translate(1 1)" fill="#28324E"/>
<path d="M71.2398 2.50588C71.5221 3.77647 71.7457 5.04706 71.9104 6.31765C72.0751 7.58824 72.228 8.85882 72.3692 10.1294C72.5104 11.4 72.6516 12.6706 72.7927 13.9412C72.9574 15.2118 73.1692 16.4824 73.428 17.7529C73.381 18.0588 73.3457 18.3059 73.3221 18.4941C73.2986 18.6824 73.2398 18.8 73.1457 18.8471C73.028 18.9176 72.9104 19 72.7927 19.0941C72.6986 19.1647 72.5927 19.2235 72.4751 19.2706C72.428 19.2941 72.381 19.3294 72.3339 19.3765C72.2868 19.4471 72.228 19.4941 72.1574 19.5176C72.1104 19.5412 72.0633 19.5412 72.0163 19.5176C71.9692 19.4941 71.9104 19.4235 71.8398 19.3059C71.3927 17.9647 70.981 16.6118 70.6045 15.2471C70.2516 13.8824 69.9574 12.5059 69.7221 11.1176C69.5104 9.72941 69.3692 8.32941 69.2986 6.91765C69.2516 5.48235 69.2986 4.01177 69.4398 2.50588C69.4398 2.15294 69.5457 1.92941 69.7574 1.83529C69.8516 1.78824 69.9692 1.82353 70.1104 1.94118C70.2751 2.05882 70.4163 2.14118 70.5339 2.18824C70.6986 2.25882 70.828 2.30588 70.9221 2.32941C71.0163 2.32941 71.1221 2.38824 71.2398 2.50588Z" transform="translate(1 1)" fill="#28324E"/>
<path d="M80.0175 7.69412C80.2058 7.88235 80.2764 8.03529 80.2293 8.15294C80.2058 8.27059 80.1352 8.31765 80.0175 8.29412C79.7117 8.29412 79.3705 8.32941 78.994 8.4C78.6411 8.44706 78.2528 8.49412 77.8293 8.54118C77.4293 8.56471 77.0058 8.56471 76.5587 8.54118C76.1117 8.51765 75.6646 8.43529 75.2175 8.29412C75.0293 8.10588 75.0293 7.94118 75.2175 7.8C75.4293 7.63529 75.594 7.4 75.7117 7.09412C75.7823 6.88235 75.8764 6.74118 75.994 6.67059C76.1352 6.57647 76.2764 6.51765 76.4175 6.49412C76.6764 6.49412 76.994 6.55294 77.3705 6.67059C77.7705 6.76471 78.0999 6.82353 78.3587 6.84706C78.7587 6.89412 79.0881 6.96471 79.347 7.05882C79.6058 7.12941 79.8293 7.34118 80.0175 7.69412ZM79.2764 12.4941C79.4175 13.0353 79.5234 13.5294 79.594 13.9765C79.6881 14.4235 79.747 14.8588 79.7705 15.2824C79.8175 15.6824 79.8411 16.0941 79.8411 16.5176C79.8646 16.9412 79.8764 17.4 79.8764 17.8941C79.8764 17.9882 79.8175 18.0941 79.6999 18.2118C79.6058 18.3059 79.5352 18.4118 79.4881 18.5294C79.394 18.7412 79.3117 18.8706 79.2411 18.9176C79.194 18.9647 79.0999 19.0235 78.9587 19.0941C78.6293 19.2353 78.3352 19.4353 78.0764 19.6941C77.7705 19.2471 77.5587 18.7294 77.4411 18.1412C77.347 17.5529 77.2764 16.9412 77.2293 16.3059C77.2058 15.6706 77.1705 15.0353 77.1234 14.4C77.0999 13.7412 77.0175 13.1059 76.8764 12.4941C76.8058 12.1647 76.8293 11.9412 76.947 11.8235C77.0646 11.7059 77.194 11.6235 77.3352 11.5765C77.4999 11.5294 77.6764 11.5647 77.8646 11.6824C78.0764 11.8 78.2764 11.9176 78.4646 12.0353C78.6293 12.1294 78.7823 12.1882 78.9234 12.2118C79.0881 12.2118 79.2058 12.3059 79.2764 12.4941Z" transform="translate(1 1)" fill="#28324E"/>
<path d="M86.9683 9.10588L86.3683 9.70588C86.5565 9.68235 86.8389 9.63529 87.2153 9.56471C87.6153 9.47059 88.0036 9.42353 88.38 9.42353C88.6624 9.47059 88.8977 9.56471 89.0859 9.70588C89.2742 9.84706 89.3918 10.1176 89.4389 10.5176C89.533 11.0824 89.6742 11.6588 89.8624 12.2471C90.0742 12.8118 90.2271 13.3765 90.3212 13.9412C90.4389 14.5059 90.4389 15.0471 90.3212 15.5647C90.2036 16.0588 89.8859 16.5059 89.3683 16.9059C88.8271 17.7294 88.2271 18.4235 87.5683 18.9882C86.933 19.5294 86.2624 19.8471 85.5565 19.9412C85.0859 20.0118 84.5683 19.9412 84.0036 19.7294C83.4389 19.5412 83.0271 19.2 82.7683 18.7059C82.6977 18.7529 82.6389 18.7647 82.5918 18.7412C82.5447 18.6941 82.4977 18.6471 82.4506 18.6C82.4036 18.5529 82.3565 18.5412 82.3094 18.5647C82.2859 18.5882 82.2624 18.5765 82.2389 18.5294C82.2153 18.4588 82.2036 18.3647 82.2036 18.2471V18.1765V18.1059C82.2271 17.2824 82.2977 16.4588 82.4153 15.6353C82.5565 14.7882 82.7565 13.9765 83.0153 13.2C83.2977 12.4 83.6506 11.6588 84.0742 10.9765C84.5212 10.2706 85.0859 9.64706 85.7683 9.10588C86.0036 8.96471 86.2624 8.91765 86.5447 8.96471C86.5918 8.96471 86.6506 8.96471 86.7212 8.96471C86.7918 8.96471 86.8742 9.01177 86.9683 9.10588ZM85.7683 11.5059C85.6271 11.4824 85.5447 11.4353 85.5212 11.3647C85.4977 11.2941 85.4977 11.2118 85.5212 11.1176C85.5683 11 85.6153 10.8706 85.6624 10.7294C85.733 10.5882 85.7683 10.4471 85.7683 10.3059C85.2742 10.7529 84.8859 11.2941 84.6036 11.9294C84.3447 12.5647 84.1565 13.2235 84.0389 13.9059C83.9212 14.5647 83.8624 15.2118 83.8624 15.8471C83.8859 16.4824 83.9212 17.0353 83.9683 17.5059C84.0153 17.9059 84.0977 18.2353 84.2153 18.4941C84.333 18.7294 84.5094 18.8706 84.7447 18.9176C85.0036 18.9882 85.3447 18.9176 85.7683 18.7059C86.38 18.4 86.8742 17.9765 87.2506 17.4353C87.6271 16.8941 87.933 16.3176 88.1683 15.7059C88.2624 15.3765 88.333 14.9882 88.38 14.5412C88.4506 14.0706 88.4389 13.6353 88.3447 13.2353C88.2271 12.6941 87.9212 12.3059 87.4271 12.0706C86.9565 11.8118 86.4036 11.6235 85.7683 11.5059Z" transform="translate(1 1)" fill="#28324E"/>
<path d="M102.852 7.90588C102.852 8.11765 102.887 8.38824 102.958 8.71765C103.028 9.02353 103.005 9.27059 102.887 9.45882C102.84 9.50588 102.817 9.6 102.817 9.74118C102.817 9.85882 102.781 9.94118 102.711 9.98824L102.252 9.70588C101.876 9.51765 101.452 9.43529 100.981 9.45882C100.534 9.48235 100.076 9.58824 99.6049 9.77647C99.2755 9.91765 98.9461 10.1176 98.6167 10.3765C98.3108 10.6118 98.0167 10.8824 97.7344 11.1882C97.452 11.4941 97.1932 11.8118 96.9579 12.1412C96.7226 12.4706 96.5226 12.7882 96.3579 13.0941C95.9814 13.7765 95.7932 14.6 95.7932 15.5647C95.8167 16.5294 96.1696 17.7765 96.852 19.3059C96.852 19.4706 96.7344 19.6706 96.4991 19.9059C96.452 19.9529 96.3932 20.0235 96.3226 20.1176C96.252 20.2118 96.1932 20.2824 96.1461 20.3294C95.9579 20.4941 95.8402 20.6353 95.7932 20.7529C95.7697 20.8706 95.6991 20.9529 95.5814 21C95.3932 21.0706 95.2167 20.9059 95.052 20.5059C94.652 19.8 94.2638 18.9412 93.8873 17.9294C93.5344 16.8941 93.1932 15.8353 92.8638 14.7529C92.5579 13.6706 92.2755 12.6353 92.0167 11.6471C91.7814 10.6353 91.5932 9.78824 91.452 9.10588C91.3814 8.91765 91.3696 8.74118 91.4167 8.57647C91.4638 8.38824 91.5344 8.23529 91.6285 8.11765C91.6991 8.02353 91.7814 8 91.8755 8.04706C91.9932 8.09412 92.0873 8.11765 92.1579 8.11765C92.4638 8.11765 92.652 8.17647 92.7226 8.29412C92.7932 8.41177 92.9108 8.56471 93.0755 8.75294C93.4049 9.12941 93.6638 9.63529 93.852 10.2706C94.0402 10.9059 94.2755 11.6588 94.5579 12.5294C94.9344 11.8941 95.4167 11.2824 96.0049 10.6941C96.6167 10.1059 97.2755 9.57647 97.9814 9.10588C98.6873 8.61177 99.4167 8.21177 100.17 7.90588C100.923 7.6 101.652 7.41176 102.358 7.34118C102.499 7.31765 102.617 7.36471 102.711 7.48235C102.828 7.57647 102.876 7.71765 102.852 7.90588Z" transform="translate(1 1)" fill="#28324E"/>
<path d="M15.8471 12.9882C15.7765 13.1059 15.6706 13.1882 15.5294 13.2353C15.4118 13.2588 15.2941 13.3059 15.1765 13.3765C15.0588 13.4471 14.9412 13.5412 14.8235 13.6588C14.7059 13.7765 14.5882 13.8706 14.4706 13.9412C14.8 15.2118 15.0588 16.3176 15.2471 17.2588C15.4353 18.2 15.5529 18.9059 15.6 19.3765C15.6471 19.8471 15.6824 20.3647 15.7059 20.9294C15.7294 21.4941 15.7412 22.0118 15.7412 22.4824C15.7412 22.8353 15.7176 23.1176 15.6706 23.3294C15.6471 23.5647 15.6 23.7882 15.5294 24C15.2471 23.6471 15.0118 23.2706 14.8235 22.8706C14.6588 22.4706 14.4824 22.0706 14.2941 21.6706C13.8941 20.4706 13.5059 19.2118 13.1294 17.8941C12.7765 16.5765 12.4235 15.2353 12.0706 13.8706C11.4118 13.8471 10.7059 13.8353 9.95294 13.8353C9.2 13.8353 8.44706 13.8353 7.69412 13.8353C6.94118 13.8353 6.22353 13.8471 5.54118 13.8706C4.88235 13.8706 4.30588 13.8824 3.81176 13.9059C3.76471 14.0471 3.71765 14.2118 3.67059 14.4C3.52941 14.7059 3.41176 15.0471 3.31765 15.4235C3.22353 15.7765 3.14118 16.1647 3.07059 16.5882C3 16.9882 2.91765 17.4118 2.82353 17.8588C2.72941 18.3059 2.61176 18.7529 2.47059 19.2C2.77647 19.2 3.07059 19.1059 3.35294 18.9176C3.65882 18.7059 3.96471 18.6 4.27059 18.6C4.05882 18.8118 3.87059 19.0471 3.70588 19.3059C3.56471 19.5647 3.43529 19.9059 3.31765 20.3294C3.29412 20.4471 3.22353 20.5647 3.10588 20.6824C2.98824 20.8235 2.90588 20.9294 2.85882 21C2.81176 21.0941 2.76471 21.1882 2.71765 21.2824C2.67059 21.4 2.61176 21.4824 2.54118 21.5294C2.37647 21.6235 2.23529 21.6706 2.11765 21.6706C2 21.6941 1.91765 21.6706 1.87059 21.6C1.68235 21.3176 1.55294 21.0118 1.48235 20.6824C1.43529 20.3765 1.38824 20.0471 1.34118 19.6941C1.34118 19.0588 1.42353 18.2353 1.58824 17.2235C1.75294 16.2118 1.96471 15.1294 2.22353 13.9765C2.03529 13.9294 1.84706 13.8471 1.65882 13.7294C1.47059 13.5882 1.30588 13.4941 1.16471 13.4471C0.905882 13.3294 0.694118 13.2706 0.529412 13.2706C0.364706 13.2471 0.188235 13.1529 0 12.9882L2.15294 12.4235C2.27059 12.4235 2.42353 12.4 2.61176 12.3529C2.89412 11.2471 3.17647 10.1882 3.45882 9.17647C3.74118 8.16471 4.01176 7.30588 4.27059 6.6C4.45882 6.05882 4.68235 5.43529 4.94118 4.72941C5.22353 4.02353 5.54118 3.35294 5.89412 2.71765C6.27059 2.05882 6.68235 1.49412 7.12941 1.02353C7.6 0.552942 8.10588 0.258824 8.64706 0.141177C8.81176 0.0941185 8.97647 0.0588249 9.14118 0.0352958C9.30588 0.0117653 9.48235 0 9.67059 0C9.85882 0 10 0.0941178 10.0941 0.282353C10.1882 0.44706 10.3294 0.658825 10.5176 0.917648C10.6353 1.12941 10.7412 1.31765 10.8353 1.48235C10.9529 1.62353 11.0706 1.92941 11.1882 2.4C11.7529 4.11765 12.2824 5.84706 12.7765 7.58824C13.2706 9.30588 13.7059 10.9294 14.0824 12.4588L16.2353 12.9176L15.8471 12.9882ZM8.64706 1.65883C8.24706 2.2 7.87059 2.8 7.51765 3.45882C7.16471 4.09412 6.81176 4.83529 6.45882 5.68235C6.10588 6.50588 5.75294 7.45882 5.4 8.54118C5.04706 9.6 4.68235 10.8 4.30588 12.1412C5.52941 12 6.75294 11.9176 7.97647 11.8941C9.2 11.8706 10.4118 11.9176 11.6118 12.0353C11.1176 10.1294 10.6353 8.28235 10.1647 6.49412C9.69412 4.68235 9.18823 3.07059 8.64706 1.65883Z" fill="white"/>
<path d="M20.1529 14.5059C20.5529 14.1059 20.9529 13.6824 21.3529 13.2353C21.7765 12.7647 22.2118 12.3176 22.6588 11.8941C23.1059 11.4706 23.5647 11.0941 24.0353 10.7647C24.5059 10.4118 25 10.1294 25.5176 9.91765C25.6353 9.87059 25.7412 9.85882 25.8353 9.88235C25.9529 9.90588 26.0706 9.89412 26.1882 9.84706C26.3765 9.84706 26.5412 9.84706 26.6824 9.84706C26.8235 9.84706 26.9529 9.89412 27.0706 9.98824C27.4 10.2 27.6588 10.5059 27.8471 10.9059C28.0588 11.2824 28.2353 11.7059 28.3765 12.1765C28.4706 12.4353 28.5176 12.6824 28.5176 12.9176C28.5412 13.1529 28.6118 13.4235 28.7294 13.7294C28.8706 14.1765 29.0235 14.6353 29.1882 15.1059C29.3765 15.5529 29.4471 15.9882 29.4 16.4118C29.3765 16.5294 29.3412 16.6353 29.2941 16.7294C29.2471 16.8 29.1882 16.8941 29.1176 17.0118C29.0706 17.1059 28.9882 17.2235 28.8706 17.3647C28.7529 17.5059 28.6353 17.6118 28.5176 17.6824C28.4 17.7765 28.3176 17.8588 28.2706 17.9294C28.2471 17.9765 28.1412 18.0353 27.9529 18.1059C27.6471 17.6588 27.4118 17.1765 27.2471 16.6588C27.0824 16.1412 26.9412 15.6 26.8235 15.0353C26.7059 14.4706 26.6 13.8941 26.5059 13.3059C26.4118 12.7176 26.2941 12.1176 26.1529 11.5059C26.1059 11.3412 25.9529 11.2471 25.6941 11.2235C25.4588 11.2 25.1765 11.2824 24.8471 11.4706C24.5412 11.6353 24.2118 11.9059 23.8588 12.2824C23.5059 12.6588 23.1882 13.1412 22.9059 13.7294C22.7176 14.1529 22.5412 14.6 22.3765 15.0706C22.2118 15.5176 22.0235 15.9765 21.8118 16.4471C21.6235 16.8941 21.3882 17.3412 21.1059 17.7882C20.8471 18.2118 20.5294 18.6 20.1529 18.9529C20.0353 19.0706 19.9529 19.0824 19.9059 18.9882C19.8588 18.8941 19.7412 18.8118 19.5529 18.7412C19.4118 18.6941 19.3294 18.6471 19.3059 18.6C19.3059 18.5529 19.2706 18.4118 19.2 18.1765C19.0588 17.6824 18.9059 17.1176 18.7412 16.4824C18.6 15.8471 18.4353 15.1765 18.2471 14.4706C18.0824 13.7647 17.9059 13.0588 17.7176 12.3529C17.5294 11.6235 17.3412 10.9412 17.1529 10.3059L16.9412 9.67059C16.9882 9.57647 17.0706 9.49412 17.1882 9.42353C17.3294 9.35294 17.4706 9.29412 17.6118 9.24706C17.7529 9.2 17.9059 9.21177 18.0706 9.28235C18.2353 9.35294 18.3647 9.38824 18.4588 9.38824C18.7176 9.38824 18.9412 9.55294 19.1294 9.88235C19.3412 10.2118 19.5176 10.6353 19.6588 11.1529C19.8 11.6471 19.9059 12.2 19.9765 12.8118C20.0706 13.4 20.1294 13.9647 20.1529 14.5059Z" fill="white"/>
<path d="M35.4835 7.69412C35.6718 7.88235 35.7424 8.03529 35.6953 8.15294C35.6718 8.27059 35.6012 8.31765 35.4835 8.29412C35.1777 8.29412 34.8365 8.32941 34.46 8.4C34.1071 8.44706 33.7188 8.49412 33.2953 8.54118C32.8953 8.56471 32.4718 8.56471 32.0247 8.54118C31.5777 8.51765 31.1306 8.43529 30.6835 8.29412C30.4953 8.10588 30.4953 7.94118 30.6835 7.8C30.8953 7.63529 31.06 7.4 31.1777 7.09412C31.2482 6.88235 31.3424 6.74118 31.46 6.67059C31.6012 6.57647 31.7424 6.51765 31.8835 6.49412C32.1424 6.49412 32.46 6.55294 32.8365 6.67059C33.2365 6.76471 33.5659 6.82353 33.8247 6.84706C34.2247 6.89412 34.5541 6.96471 34.813 7.05882C35.0718 7.12941 35.2953 7.34118 35.4835 7.69412ZM34.7424 12.4941C34.8835 13.0353 34.9894 13.5294 35.06 13.9765C35.1541 14.4235 35.213 14.8588 35.2365 15.2824C35.2835 15.6824 35.3071 16.0941 35.3071 16.5176C35.3306 16.9412 35.3424 17.4 35.3424 17.8941C35.3424 17.9882 35.2835 18.0941 35.1659 18.2118C35.0718 18.3059 35.0012 18.4118 34.9541 18.5294C34.86 18.7412 34.7777 18.8706 34.7071 18.9176C34.66 18.9647 34.5659 19.0235 34.4247 19.0941C34.0953 19.2353 33.8012 19.4353 33.5424 19.6941C33.2365 19.2471 33.0247 18.7294 32.9071 18.1412C32.813 17.5529 32.7424 16.9412 32.6953 16.3059C32.6718 15.6706 32.6365 15.0353 32.5894 14.4C32.5659 13.7412 32.4835 13.1059 32.3424 12.4941C32.2718 12.1647 32.2953 11.9412 32.413 11.8235C32.5306 11.7059 32.66 11.6235 32.8012 11.5765C32.9659 11.5294 33.1424 11.5647 33.3306 11.6824C33.5424 11.8 33.7424 11.9176 33.9306 12.0353C34.0953 12.1294 34.2483 12.1882 34.3894 12.2118C34.5541 12.2118 34.6718 12.3059 34.7424 12.4941Z" fill="white"/>
<path d="M38.9049 8.50588C39.046 9.11765 39.1049 9.75294 39.0813 10.4118C39.0578 11.0706 39.0225 11.7412 38.9755 12.4235C38.9519 13.0824 38.9519 13.7529 38.9755 14.4353C39.0225 15.0941 39.199 15.7176 39.5049 16.3059C40.046 14.9647 40.7872 13.7529 41.7284 12.6706C42.6696 11.5647 43.6696 10.5765 44.7284 9.70588C44.8696 9.58824 45.0107 9.51765 45.1519 9.49412C45.3166 9.44706 45.4696 9.4 45.6107 9.35294C45.7284 9.30588 45.8343 9.27059 45.9284 9.24706C46.046 9.2 46.199 9.22353 46.3872 9.31765C46.8578 9.57647 47.1284 10.0706 47.199 10.8C47.2696 11.5294 47.3049 12.5647 47.3049 13.9059C47.6578 13.5529 48.0107 13.1647 48.3637 12.7412C48.7402 12.2941 49.1166 11.8706 49.4931 11.4706C49.8696 11.0706 50.2578 10.7176 50.6578 10.4118C51.0578 10.1059 51.4813 9.88235 51.9284 9.74118C52.0696 9.69412 52.2107 9.69412 52.3519 9.74118C52.5166 9.76471 52.6696 9.77647 52.8107 9.77647C52.9049 9.77647 52.9872 9.76471 53.0578 9.74118C53.1284 9.69412 53.2107 9.68235 53.3049 9.70588C53.446 9.72941 53.5637 9.8 53.6578 9.91765C53.7755 10.0353 53.8578 10.1647 53.9049 10.3059C53.999 10.6588 54.1284 11.1529 54.2931 11.7882C54.4578 12.4 54.599 13.0353 54.7166 13.6941C54.8578 14.3294 54.9637 14.9294 55.0343 15.4941C55.1049 16.0588 55.1049 16.4588 55.0343 16.6941C54.9872 16.9059 54.9284 17.0471 54.8578 17.1176C54.8107 17.1882 54.6931 17.3176 54.5049 17.5059C54.4578 17.5059 54.399 17.5412 54.3284 17.6118C54.2813 17.6824 54.2225 17.7529 54.1519 17.8235C54.0578 17.9176 53.9755 18.0118 53.9049 18.1059C53.599 17.6588 53.3637 17.1765 53.199 16.6588C53.0343 16.1412 52.8931 15.6 52.7755 15.0353C52.6578 14.4706 52.5519 13.8941 52.4578 13.3059C52.3637 12.7176 52.246 12.1176 52.1049 11.5059C51.4225 11.8588 50.8813 12.2706 50.4813 12.7412C50.1049 13.1882 49.799 13.6706 49.5637 14.1882C49.3284 14.6824 49.1166 15.1882 48.9284 15.7059C48.7402 16.2235 48.5049 16.7176 48.2225 17.1882C47.9637 17.5882 47.7049 17.9059 47.446 18.1412C47.1872 18.3765 46.9755 18.4824 46.8107 18.4588C46.6696 18.4353 46.5637 18.3059 46.4931 18.0706C46.4225 17.8353 46.3284 17.4824 46.2107 17.0118C45.9755 16.0471 45.7519 15.0118 45.5402 13.9059C45.3519 12.8 45.1402 11.8 44.9049 10.9059C44.4578 11.0471 44.0107 11.3059 43.5637 11.6824C43.1402 12.0353 42.7402 12.4588 42.3637 12.9529C41.9872 13.4235 41.646 13.9529 41.3402 14.5412C41.0578 15.1294 40.846 15.7176 40.7049 16.3059C41.0107 16.9176 41.0225 17.4235 40.7402 17.8235C40.6225 18.0118 40.4578 18.1765 40.246 18.3176C40.0343 18.4353 39.7872 18.5647 39.5049 18.7059C39.3402 18.8706 39.1637 18.9294 38.9755 18.8824C38.7872 18.8353 38.6343 18.7294 38.5166 18.5647C38.399 18.3765 38.3284 18.2235 38.3049 18.1059C38.1637 17.3529 38.0225 16.5765 37.8813 15.7765C37.7402 14.9529 37.646 14.1294 37.599 13.3059C37.5755 12.4824 37.6107 11.6706 37.7049 10.8706C37.799 10.0471 37.999 9.25882 38.3049 8.50588C38.3519 8.36471 38.399 8.29412 38.446 8.29412C38.4931 8.29412 38.5402 8.31765 38.5872 8.36471C38.6343 8.38824 38.6813 8.41176 38.7284 8.43529C38.7755 8.45882 38.799 8.47059 38.799 8.47059C38.8225 8.47059 38.8578 8.48235 38.9049 8.50588Z" fill="white"/>
<path d="M65.3333 8.89412C65.6391 9.64706 65.9215 10.4588 66.1803 11.3294C66.4627 12.2 66.6509 13.0706 66.745 13.9412C66.8627 14.7882 66.8627 15.6118 66.745 16.4118C66.6509 17.2118 66.3803 17.9059 65.9333 18.4941C65.745 18.7294 65.5215 18.8235 65.2627 18.7765C65.1686 18.7529 65.0862 18.6941 65.0156 18.6C64.945 18.5059 64.8509 18.4235 64.7333 18.3529C64.6391 18.2824 64.5333 18.2235 64.4156 18.1765C64.3215 18.1294 64.2274 18.0353 64.1333 17.8941C63.7803 18.0118 63.4274 18.1882 63.0744 18.4235C62.745 18.6353 62.4039 18.8588 62.0509 19.0941C61.698 19.3294 61.3333 19.5529 60.9568 19.7647C60.5803 20 60.1921 20.1647 59.7921 20.2588C59.3686 20.3765 59.0509 20.3529 58.8391 20.1882C58.6509 20.0471 58.4391 19.8824 58.2039 19.6941C58.0391 19.5529 57.9333 19.4588 57.8862 19.4118C57.8391 19.3882 57.7921 19.2471 57.745 18.9882C57.6744 18.4706 57.6627 17.9176 57.7097 17.3294C57.7803 16.7176 57.9215 16.1059 58.1333 15.4941C58.7215 13.7059 59.9215 12.5059 61.7333 11.8941C61.945 11.8235 62.1568 11.8118 62.3686 11.8588C62.6039 11.8824 62.8274 11.9412 63.0391 12.0353C63.2509 12.1294 63.4509 12.2471 63.6391 12.3882C63.8509 12.5294 64.0391 12.6706 64.2039 12.8118L64.7686 13.2706C64.8862 12.8706 64.8744 12.4471 64.7333 12C64.6156 11.5294 64.4274 11.0941 64.1686 10.6941C63.9097 10.2706 63.6156 9.89412 63.2862 9.56471C62.9568 9.23529 62.6391 9.01176 62.3333 8.89412C61.1333 8.89412 60.0509 9.17647 59.0862 9.74118C58.145 10.2824 57.2274 11 56.3333 11.8941C56.2862 11.9412 56.2274 11.9765 56.1568 12C56.1097 12.0235 56.0627 12.0471 56.0156 12.0706C55.945 12.1176 55.8627 12.1294 55.7686 12.1059C55.698 12.0824 55.6862 12.0118 55.7333 11.8941C55.8744 11.1412 56.1568 10.4706 56.5803 9.88235C57.0039 9.27059 57.498 8.74118 58.0627 8.29412C58.6274 7.84706 59.2274 7.47059 59.8627 7.16471C60.498 6.85882 61.1215 6.63529 61.7333 6.49412C61.8274 6.44706 61.9097 6.42353 61.9803 6.42353C62.0744 6.4 62.1803 6.38824 62.298 6.38824C62.4627 6.38824 62.6156 6.43529 62.7568 6.52941C62.898 6.62353 63.0627 6.72941 63.2509 6.84706C63.4862 6.96471 63.7215 7.10588 63.9568 7.27059C64.1921 7.41177 64.4039 7.58824 64.5921 7.8C64.7568 7.98824 64.898 8.17647 65.0156 8.36471C65.1333 8.55294 65.2391 8.72941 65.3333 8.89412ZM64.1333 15.1765C63.9921 14.8706 63.7686 14.5882 63.4627 14.3294C63.1803 14.0706 62.8509 13.8824 62.4744 13.7647C62.098 13.6235 61.6862 13.5882 61.2391 13.6588C60.8156 13.7294 60.3803 13.9412 59.9333 14.2941C59.7921 14.6 59.6509 14.9412 59.5097 15.3176C59.3686 15.6706 59.2627 16.0353 59.1921 16.4118C59.1215 16.7647 59.0862 17.1294 59.0862 17.5059C59.1097 17.8588 59.1921 18.1882 59.3333 18.4941C60.2274 18.1882 61.098 17.8353 61.945 17.4353C62.7921 17.0353 63.5215 16.6824 64.1333 16.3765C64.2744 16.2353 64.3568 16.1176 64.3803 16.0235C64.4039 15.9294 64.3921 15.8471 64.345 15.7765C64.3215 15.7059 64.2744 15.6235 64.2039 15.5294C64.1568 15.4353 64.1333 15.3176 64.1333 15.1765Z" fill="white"/>
<path d="M71.2398 2.50588C71.5221 3.77647 71.7457 5.04706 71.9104 6.31765C72.0751 7.58824 72.228 8.85882 72.3692 10.1294C72.5104 11.4 72.6516 12.6706 72.7927 13.9412C72.9574 15.2118 73.1692 16.4824 73.428 17.7529C73.381 18.0588 73.3457 18.3059 73.3221 18.4941C73.2986 18.6824 73.2398 18.8 73.1457 18.8471C73.028 18.9176 72.9104 19 72.7927 19.0941C72.6986 19.1647 72.5927 19.2235 72.4751 19.2706C72.428 19.2941 72.381 19.3294 72.3339 19.3765C72.2868 19.4471 72.228 19.4941 72.1574 19.5176C72.1104 19.5412 72.0633 19.5412 72.0163 19.5176C71.9692 19.4941 71.9104 19.4235 71.8398 19.3059C71.3927 17.9647 70.981 16.6118 70.6045 15.2471C70.2516 13.8824 69.9574 12.5059 69.7221 11.1176C69.5104 9.72941 69.3692 8.32941 69.2986 6.91765C69.2516 5.48235 69.2986 4.01177 69.4398 2.50588C69.4398 2.15294 69.5457 1.92941 69.7574 1.83529C69.8516 1.78824 69.9692 1.82353 70.1104 1.94118C70.2751 2.05882 70.4163 2.14118 70.5339 2.18824C70.6986 2.25882 70.828 2.30588 70.9221 2.32941C71.0163 2.32941 71.1221 2.38824 71.2398 2.50588Z" fill="white"/>
<path d="M80.0175 7.69412C80.2058 7.88235 80.2764 8.03529 80.2293 8.15294C80.2058 8.27059 80.1352 8.31765 80.0175 8.29412C79.7117 8.29412 79.3705 8.32941 78.994 8.4C78.6411 8.44706 78.2528 8.49412 77.8293 8.54118C77.4293 8.56471 77.0058 8.56471 76.5587 8.54118C76.1117 8.51765 75.6646 8.43529 75.2175 8.29412C75.0293 8.10588 75.0293 7.94118 75.2175 7.8C75.4293 7.63529 75.594 7.4 75.7117 7.09412C75.7823 6.88235 75.8764 6.74118 75.994 6.67059C76.1352 6.57647 76.2764 6.51765 76.4175 6.49412C76.6764 6.49412 76.994 6.55294 77.3705 6.67059C77.7705 6.76471 78.0999 6.82353 78.3587 6.84706C78.7587 6.89412 79.0881 6.96471 79.347 7.05882C79.6058 7.12941 79.8293 7.34118 80.0175 7.69412ZM79.2764 12.4941C79.4175 13.0353 79.5234 13.5294 79.594 13.9765C79.6881 14.4235 79.747 14.8588 79.7705 15.2824C79.8175 15.6824 79.8411 16.0941 79.8411 16.5176C79.8646 16.9412 79.8764 17.4 79.8764 17.8941C79.8764 17.9882 79.8175 18.0941 79.6999 18.2118C79.6058 18.3059 79.5352 18.4118 79.4881 18.5294C79.394 18.7412 79.3117 18.8706 79.2411 18.9176C79.194 18.9647 79.0999 19.0235 78.9587 19.0941C78.6293 19.2353 78.3352 19.4353 78.0764 19.6941C77.7705 19.2471 77.5587 18.7294 77.4411 18.1412C77.347 17.5529 77.2764 16.9412 77.2293 16.3059C77.2058 15.6706 77.1705 15.0353 77.1234 14.4C77.0999 13.7412 77.0175 13.1059 76.8764 12.4941C76.8058 12.1647 76.8293 11.9412 76.947 11.8235C77.0646 11.7059 77.194 11.6235 77.3352 11.5765C77.4999 11.5294 77.6764 11.5647 77.8646 11.6824C78.0764 11.8 78.2764 11.9176 78.4646 12.0353C78.6293 12.1294 78.7823 12.1882 78.9234 12.2118C79.0881 12.2118 79.2058 12.3059 79.2764 12.4941Z" fill="white"/>
<path d="M86.9683 9.10588L86.3683 9.70588C86.5565 9.68235 86.8389 9.63529 87.2153 9.56471C87.6153 9.47059 88.0036 9.42353 88.38 9.42353C88.6624 9.47059 88.8977 9.56471 89.0859 9.70588C89.2742 9.84706 89.3918 10.1176 89.4389 10.5176C89.533 11.0824 89.6742 11.6588 89.8624 12.2471C90.0742 12.8118 90.2271 13.3765 90.3212 13.9412C90.4389 14.5059 90.4389 15.0471 90.3212 15.5647C90.2036 16.0588 89.8859 16.5059 89.3683 16.9059C88.8271 17.7294 88.2271 18.4235 87.5683 18.9882C86.933 19.5294 86.2624 19.8471 85.5565 19.9412C85.0859 20.0118 84.5683 19.9412 84.0036 19.7294C83.4389 19.5412 83.0271 19.2 82.7683 18.7059C82.6977 18.7529 82.6389 18.7647 82.5918 18.7412C82.5447 18.6941 82.4977 18.6471 82.4506 18.6C82.4036 18.5529 82.3565 18.5412 82.3094 18.5647C82.2859 18.5882 82.2624 18.5765 82.2389 18.5294C82.2153 18.4588 82.2036 18.3647 82.2036 18.2471V18.1765V18.1059C82.2271 17.2824 82.2977 16.4588 82.4153 15.6353C82.5565 14.7882 82.7565 13.9765 83.0153 13.2C83.2977 12.4 83.6506 11.6588 84.0742 10.9765C84.5212 10.2706 85.0859 9.64706 85.7683 9.10588C86.0036 8.96471 86.2624 8.91765 86.5447 8.96471C86.5918 8.96471 86.6506 8.96471 86.7212 8.96471C86.7918 8.96471 86.8742 9.01177 86.9683 9.10588ZM85.7683 11.5059C85.6271 11.4824 85.5447 11.4353 85.5212 11.3647C85.4977 11.2941 85.4977 11.2118 85.5212 11.1176C85.5683 11 85.6153 10.8706 85.6624 10.7294C85.733 10.5882 85.7683 10.4471 85.7683 10.3059C85.2742 10.7529 84.8859 11.2941 84.6036 11.9294C84.3447 12.5647 84.1565 13.2235 84.0389 13.9059C83.9212 14.5647 83.8624 15.2118 83.8624 15.8471C83.8859 16.4824 83.9212 17.0353 83.9683 17.5059C84.0153 17.9059 84.0977 18.2353 84.2153 18.4941C84.333 18.7294 84.5094 18.8706 84.7447 18.9176C85.0036 18.9882 85.3447 18.9176 85.7683 18.7059C86.38 18.4 86.8742 17.9765 87.2506 17.4353C87.6271 16.8941 87.933 16.3176 88.1683 15.7059C88.2624 15.3765 88.333 14.9882 88.38 14.5412C88.4506 14.0706 88.4389 13.6353 88.3447 13.2353C88.2271 12.6941 87.9212 12.3059 87.4271 12.0706C86.9565 11.8118 86.4036 11.6235 85.7683 11.5059Z" fill="white"/>
<path d="M102.852 7.90588C102.852 8.11765 102.887 8.38824 102.958 8.71765C103.028 9.02353 103.005 9.27059 102.887 9.45882C102.84 9.50588 102.817 9.6 102.817 9.74118C102.817 9.85882 102.781 9.94118 102.711 9.98824L102.252 9.70588C101.876 9.51765 101.452 9.43529 100.981 9.45882C100.534 9.48235 100.076 9.58824 99.6049 9.77647C99.2755 9.91765 98.9461 10.1176 98.6167 10.3765C98.3108 10.6118 98.0167 10.8824 97.7344 11.1882C97.452 11.4941 97.1932 11.8118 96.9579 12.1412C96.7226 12.4706 96.5226 12.7882 96.3579 13.0941C95.9814 13.7765 95.7932 14.6 95.7932 15.5647C95.8167 16.5294 96.1696 17.7765 96.852 19.3059C96.852 19.4706 96.7344 19.6706 96.4991 19.9059C96.452 19.9529 96.3932 20.0235 96.3226 20.1176C96.252 20.2118 96.1932 20.2824 96.1461 20.3294C95.9579 20.4941 95.8402 20.6353 95.7932 20.7529C95.7697 20.8706 95.6991 20.9529 95.5814 21C95.3932 21.0706 95.2167 20.9059 95.052 20.5059C94.652 19.8 94.2638 18.9412 93.8873 17.9294C93.5344 16.8941 93.1932 15.8353 92.8638 14.7529C92.5579 13.6706 92.2755 12.6353 92.0167 11.6471C91.7814 10.6353 91.5932 9.78824 91.452 9.10588C91.3814 8.91765 91.3696 8.74118 91.4167 8.57647C91.4638 8.38824 91.5344 8.23529 91.6285 8.11765C91.6991 8.02353 91.7814 8 91.8755 8.04706C91.9932 8.09412 92.0873 8.11765 92.1579 8.11765C92.4638 8.11765 92.652 8.17647 92.7226 8.29412C92.7932 8.41177 92.9108 8.56471 93.0755 8.75294C93.4049 9.12941 93.6638 9.63529 93.852 10.2706C94.0402 10.9059 94.2755 11.6588 94.5579 12.5294C94.9344 11.8941 95.4167 11.2824 96.0049 10.6941C96.6167 10.1059 97.2755 9.57647 97.9814 9.10588C98.6873 8.61177 99.4167 8.21177 100.17 7.90588C100.923 7.6 101.652 7.41176 102.358 7.34118C102.499 7.31765 102.617 7.36471 102.711 7.48235C102.828 7.57647 102.876 7.71765 102.852 7.90588Z" fill="white"/>
</svg>
